<mxfile host="65bd71144e">
    <diagram id="VbHgLgtObNh41P_mj9Rv" name="Page-1">
        <mxGraphModel dx="2699" dy="2480" grid="0" gridSize="10" guides="1" tooltips="1" connect="1" arrows="1" fold="1" page="1" pageScale="1" pageWidth="827" pageHeight="1169" background="#ffffff" math="0" shadow="0">
            <root>
                <mxCell id="0"/>
                <mxCell id="1" parent="0"/>
                <object placeholders="1" c4Name="Client" c4Type="Person" c4Description="Digital Wallet User" label="&lt;font style=&quot;font-size: 15px;&quot;&gt;&lt;b style=&quot;font-size: 15px;&quot;&gt;%c4Name%&lt;/b&gt;&lt;/font&gt;&lt;div style=&quot;font-size: 15px;&quot;&gt;[%c4Type%]&lt;/div&gt;&lt;br style=&quot;font-size: 15px;&quot;&gt;&lt;div style=&quot;font-size: 15px;&quot;&gt;&lt;font style=&quot;font-size: 15px;&quot;&gt;&lt;font color=&quot;#cccccc&quot; style=&quot;font-size: 15px;&quot;&gt;%c4Description%&lt;/font&gt;&lt;/font&gt;&lt;/div&gt;" id="2">
                    <mxCell style="html=1;fontSize=15;dashed=0;whiteSpace=wrap;fillColor=#083F75;strokeColor=#06315C;fontColor=#ffffff;shape=mxgraph.c4.person2;align=center;metaEdit=1;points=[[0.5,0,0],[1,0.5,0],[1,0.75,0],[0.75,1,0],[0.5,1,0],[0.25,1,0],[0,0.75,0],[0,0.5,0]];resizable=0;" parent="1" vertex="1">
                        <mxGeometry x="260" y="-184" width="200" height="180" as="geometry"/>
                    </mxCell>
                </object>
                <object placeholders="1" c4Type="Relationship" c4Technology="HTTPS" c4Description="Uses" label="&lt;div style=&quot;text-align: left; font-size: 15px;&quot;&gt;&lt;div style=&quot;text-align: center; font-size: 15px;&quot;&gt;&lt;b style=&quot;font-size: 15px;&quot;&gt;%c4Description%&lt;/b&gt;&lt;/div&gt;&lt;div style=&quot;text-align: center; font-size: 15px;&quot;&gt;[%c4Technology%]&lt;/div&gt;&lt;/div&gt;" id="8">
                    <mxCell style="endArrow=blockThin;html=1;fontSize=15;fontColor=#404040;strokeWidth=1;endFill=1;strokeColor=#828282;elbow=vertical;metaEdit=1;endSize=14;startSize=14;jumpStyle=arc;jumpSize=16;rounded=0;exitX=0.5;exitY=1;exitDx=0;exitDy=0;exitPerimeter=0;entryX=0.5;entryY=0;entryDx=0;entryDy=0;entryPerimeter=0;labelBackgroundColor=none;" parent="1" source="2" target="63" edge="1">
                        <mxGeometry x="-0.1565" width="240" relative="1" as="geometry">
                            <mxPoint x="390" y="560" as="sourcePoint"/>
                            <mxPoint x="360" y="150" as="targetPoint"/>
                            <mxPoint as="offset"/>
                        </mxGeometry>
                    </mxCell>
                </object>
                <object placeholders="1" c4Name="APM" c4Type="External System" c4Description="Application Performance &#10;Monitoring" label="&lt;font style=&quot;font-size: 15px;&quot;&gt;&lt;b style=&quot;font-size: 15px;&quot;&gt;%c4Name%&lt;/b&gt;&lt;/font&gt;&lt;div style=&quot;font-size: 15px;&quot;&gt;[%c4Type%]&lt;/div&gt;&lt;br style=&quot;font-size: 15px;&quot;&gt;&lt;div style=&quot;font-size: 15px;&quot;&gt;&lt;font style=&quot;font-size: 15px;&quot;&gt;&lt;font color=&quot;#cccccc&quot; style=&quot;font-size: 15px;&quot;&gt;%c4Description%&lt;/font&gt;&lt;/font&gt;&lt;/div&gt;" id="17">
                    <mxCell style="rounded=1;whiteSpace=wrap;html=1;labelBackgroundColor=none;fillColor=#8C8496;fontColor=#ffffff;align=center;arcSize=0;strokeColor=#736782;metaEdit=1;resizable=0;points=[[0.25,0,0],[0.5,0,0],[0.75,0,0],[1,0.25,0],[1,0.5,0],[1,0.75,0],[0.75,1,0],[0.5,1,0],[0.25,1,0],[0,0.75,0],[0,0.5,0],[0,0.25,0]];fontSize=15;" parent="1" vertex="1">
                        <mxGeometry x="111" y="435" width="240" height="120" as="geometry"/>
                    </mxCell>
                </object>
                <object placeholders="1" c4Type="Relationship" c4Technology="HTTPS" c4Description="Uses" label="&lt;div style=&quot;text-align: left; font-size: 15px;&quot;&gt;&lt;div style=&quot;text-align: center; font-size: 15px;&quot;&gt;&lt;b style=&quot;font-size: 15px;&quot;&gt;%c4Description%&lt;/b&gt;&lt;/div&gt;&lt;div style=&quot;text-align: center; font-size: 15px;&quot;&gt;[%c4Technology%]&lt;/div&gt;&lt;/div&gt;" id="27">
                    <mxCell style="endArrow=blockThin;html=1;fontSize=15;fontColor=#404040;strokeWidth=1;endFill=1;strokeColor=#828282;elbow=vertical;metaEdit=1;endSize=14;startSize=14;jumpStyle=arc;jumpSize=16;rounded=0;entryX=0.5;entryY=0;entryDx=0;entryDy=0;entryPerimeter=0;labelBackgroundColor=none;exitX=0.5;exitY=1;exitDx=0;exitDy=0;exitPerimeter=0;" parent="1" source="63" target="17" edge="1">
                        <mxGeometry width="240" relative="1" as="geometry">
                            <mxPoint x="452" y="457" as="sourcePoint"/>
                            <mxPoint x="290" y="610" as="targetPoint"/>
                        </mxGeometry>
                    </mxCell>
                </object>
                <object placeholders="1" c4Type="Relationship" c4Technology="HTTPS" c4Description="Uses" label="&lt;div style=&quot;text-align: left; font-size: 15px;&quot;&gt;&lt;div style=&quot;text-align: center; font-size: 15px;&quot;&gt;&lt;b style=&quot;font-size: 15px;&quot;&gt;%c4Description%&lt;/b&gt;&lt;/div&gt;&lt;div style=&quot;text-align: center; font-size: 15px;&quot;&gt;[%c4Technology%]&lt;/div&gt;&lt;/div&gt;" id="28">
                    <mxCell style="endArrow=blockThin;html=1;fontSize=15;fontColor=#404040;strokeWidth=1;endFill=1;strokeColor=#828282;elbow=vertical;metaEdit=1;endSize=14;startSize=14;jumpStyle=arc;jumpSize=16;rounded=0;labelBackgroundColor=none;exitX=0.5;exitY=1;exitDx=0;exitDy=0;exitPerimeter=0;entryX=0.5;entryY=0;entryDx=0;entryDy=0;entryPerimeter=0;" parent="1" source="63" target="64" edge="1">
                        <mxGeometry width="240" relative="1" as="geometry">
                            <mxPoint x="302" y="337" as="sourcePoint"/>
                            <mxPoint x="-43" y="470" as="targetPoint"/>
                        </mxGeometry>
                    </mxCell>
                </object>
                <object placeholders="1" c4Type="Relationship" c4Technology="HTTPS" c4Description="Uses" label="&lt;div style=&quot;text-align: left; font-size: 15px;&quot;&gt;&lt;div style=&quot;text-align: center; font-size: 15px;&quot;&gt;&lt;b style=&quot;font-size: 15px;&quot;&gt;%c4Description%&lt;/b&gt;&lt;/div&gt;&lt;div style=&quot;text-align: center; font-size: 15px;&quot;&gt;[%c4Technology%]&lt;/div&gt;&lt;/div&gt;" id="31">
                    <mxCell style="endArrow=blockThin;html=1;fontSize=15;fontColor=#404040;strokeWidth=1;endFill=1;strokeColor=#828282;elbow=vertical;metaEdit=1;endSize=14;startSize=14;jumpStyle=arc;jumpSize=16;rounded=0;entryX=0.5;entryY=0;entryDx=0;entryDy=0;entryPerimeter=0;labelBackgroundColor=none;exitX=0.5;exitY=1;exitDx=0;exitDy=0;exitPerimeter=0;" parent="1" source="63" target="65" edge="1">
                        <mxGeometry width="240" relative="1" as="geometry">
                            <mxPoint x="393" y="332" as="sourcePoint"/>
                            <mxPoint x="570" y="370" as="targetPoint"/>
                        </mxGeometry>
                    </mxCell>
                </object>
                <mxCell id="61" value="" style="rounded=0;whiteSpace=wrap;html=1;labelBackgroundColor=#FFFFFF;strokeWidth=8;fontSize=15;labelBorderColor=default;fillColor=#FFFFFF;fontColor=#ffffff;strokeColor=#fff;" parent="1" vertex="1">
                    <mxGeometry x="-404" y="243" width="173" height="137.5" as="geometry"/>
                </mxCell>
                <mxCell id="62" value="" style="rounded=0;whiteSpace=wrap;html=1;labelBackgroundColor=#FFFFFF;strokeWidth=8;fontSize=15;labelBorderColor=default;fillColor=#FFFFFF;fontColor=#ffffff;strokeColor=#fff;" parent="1" vertex="1">
                    <mxGeometry x="281" y="665" width="173" height="137.5" as="geometry"/>
                </mxCell>
                <object placeholders="1" c4Name="Digital Wallet System" c4Type="System" c4Description="FC Wallet System" label="&lt;font style=&quot;font-size: 16px&quot;&gt;&lt;b&gt;%c4Name%&lt;/b&gt;&lt;/font&gt;&lt;div&gt;[%c4Type%]&lt;/div&gt;&lt;br&gt;&lt;div&gt;&lt;font style=&quot;font-size: 11px&quot;&gt;&lt;font color=&quot;#cccccc&quot;&gt;%c4Description%&lt;/font&gt;&lt;/div&gt;" id="63">
                    <mxCell style="rounded=1;whiteSpace=wrap;html=1;labelBackgroundColor=none;fillColor=#1061B0;fontColor=#ffffff;align=center;arcSize=0;strokeColor=#0D5091;metaEdit=1;resizable=0;points=[[0.25,0,0],[0.5,0,0],[0.75,0,0],[1,0.25,0],[1,0.5,0],[1,0.75,0],[0.75,1,0],[0.5,1,0],[0.25,1,0],[0,0.75,0],[0,0.5,0],[0,0.25,0]];" vertex="1" parent="1">
                        <mxGeometry x="240" y="143" width="240" height="120" as="geometry"/>
                    </mxCell>
                </object>
                <object placeholders="1" c4Name="AWS Secret Manager" c4Type="External System" c4Description="Gerenciador de credenciais" label="&lt;font style=&quot;font-size: 15px;&quot;&gt;&lt;b style=&quot;font-size: 15px;&quot;&gt;%c4Name%&lt;/b&gt;&lt;/font&gt;&lt;div style=&quot;font-size: 15px;&quot;&gt;[%c4Type%]&lt;/div&gt;&lt;br style=&quot;font-size: 15px;&quot;&gt;&lt;div style=&quot;font-size: 15px;&quot;&gt;&lt;font style=&quot;font-size: 15px;&quot;&gt;&lt;font color=&quot;#cccccc&quot; style=&quot;font-size: 15px;&quot;&gt;%c4Description%&lt;/font&gt;&lt;/font&gt;&lt;/div&gt;" id="64">
                    <mxCell style="rounded=1;whiteSpace=wrap;html=1;labelBackgroundColor=none;fillColor=#8C8496;fontColor=#ffffff;align=center;arcSize=0;strokeColor=#736782;metaEdit=1;resizable=0;points=[[0.25,0,0],[0.5,0,0],[0.75,0,0],[1,0.25,0],[1,0.5,0],[1,0.75,0],[0.75,1,0],[0.5,1,0],[0.25,1,0],[0,0.75,0],[0,0.5,0],[0,0.25,0]];fontSize=15;" vertex="1" parent="1">
                        <mxGeometry x="-158" y="435" width="240" height="120" as="geometry"/>
                    </mxCell>
                </object>
                <object placeholders="1" c4Name="OTEL" c4Type="External System" c4Description="OpenTelemetry Collector" label="&lt;font style=&quot;font-size: 15px;&quot;&gt;&lt;b style=&quot;font-size: 15px;&quot;&gt;%c4Name%&lt;/b&gt;&lt;/font&gt;&lt;div style=&quot;font-size: 15px;&quot;&gt;[%c4Type%]&lt;/div&gt;&lt;br style=&quot;font-size: 15px;&quot;&gt;&lt;div style=&quot;font-size: 15px;&quot;&gt;&lt;font style=&quot;font-size: 15px;&quot;&gt;&lt;font color=&quot;#cccccc&quot; style=&quot;font-size: 15px;&quot;&gt;%c4Description%&lt;/font&gt;&lt;/font&gt;&lt;/div&gt;" id="65">
                    <mxCell style="rounded=1;whiteSpace=wrap;html=1;labelBackgroundColor=none;fillColor=#8C8496;fontColor=#ffffff;align=center;arcSize=0;strokeColor=#736782;metaEdit=1;resizable=0;points=[[0.25,0,0],[0.5,0,0],[0.75,0,0],[1,0.25,0],[1,0.5,0],[1,0.75,0],[0.75,1,0],[0.5,1,0],[0.25,1,0],[0,0.75,0],[0,0.5,0],[0,0.25,0]];fontSize=15;" vertex="1" parent="1">
                        <mxGeometry x="380" y="435" width="240" height="120" as="geometry"/>
                    </mxCell>
                </object>
                <object placeholders="1" c4Name="Payment Gateway" c4Type="External System" c4Description="Processador de pagamento" label="&lt;font style=&quot;font-size: 15px;&quot;&gt;&lt;b style=&quot;font-size: 15px;&quot;&gt;%c4Name%&lt;/b&gt;&lt;/font&gt;&lt;div style=&quot;font-size: 15px;&quot;&gt;[%c4Type%]&lt;/div&gt;&lt;br style=&quot;font-size: 15px;&quot;&gt;&lt;div style=&quot;font-size: 15px;&quot;&gt;&lt;font style=&quot;font-size: 15px;&quot;&gt;&lt;font color=&quot;#cccccc&quot; style=&quot;font-size: 15px;&quot;&gt;%c4Description%&lt;/font&gt;&lt;/font&gt;&lt;/div&gt;" id="66">
                    <mxCell style="rounded=1;whiteSpace=wrap;html=1;labelBackgroundColor=none;fillColor=#8C8496;fontColor=#ffffff;align=center;arcSize=0;strokeColor=#736782;metaEdit=1;resizable=0;points=[[0.25,0,0],[0.5,0,0],[0.75,0,0],[1,0.25,0],[1,0.5,0],[1,0.75,0],[0.75,1,0],[0.5,1,0],[0.25,1,0],[0,0.75,0],[0,0.5,0],[0,0.25,0]];fontSize=15;" vertex="1" parent="1">
                        <mxGeometry x="649" y="435" width="240" height="120" as="geometry"/>
                    </mxCell>
                </object>
                <object placeholders="1" c4Type="Relationship" c4Technology="HTTPS" c4Description="Uses" label="&lt;div style=&quot;text-align: left; font-size: 15px;&quot;&gt;&lt;div style=&quot;text-align: center; font-size: 15px;&quot;&gt;&lt;b style=&quot;font-size: 15px;&quot;&gt;%c4Description%&lt;/b&gt;&lt;/div&gt;&lt;div style=&quot;text-align: center; font-size: 15px;&quot;&gt;[%c4Technology%]&lt;/div&gt;&lt;/div&gt;" id="67">
                    <mxCell style="endArrow=blockThin;html=1;fontSize=15;fontColor=#404040;strokeWidth=1;endFill=1;strokeColor=#828282;elbow=vertical;metaEdit=1;endSize=14;startSize=14;jumpStyle=arc;jumpSize=16;rounded=0;labelBackgroundColor=none;entryX=0.5;entryY=0;entryDx=0;entryDy=0;entryPerimeter=0;exitX=0.5;exitY=1;exitDx=0;exitDy=0;exitPerimeter=0;" edge="1" parent="1" source="63" target="66">
                        <mxGeometry width="240" relative="1" as="geometry">
                            <mxPoint x="511" y="280" as="sourcePoint"/>
                            <mxPoint x="-28" y="621" as="targetPoint"/>
                        </mxGeometry>
                    </mxCell>
                </object>
                <mxCell id="69" value="" style="rounded=0;whiteSpace=wrap;html=1;labelBackgroundColor=#FFFFFF;strokeWidth=8;fontSize=15;labelBorderColor=default;fillColor=#FFFFFF;fontColor=#ffffff;strokeColor=#fff;" vertex="1" parent="1">
                    <mxGeometry x="998" y="254" width="173" height="137.5" as="geometry"/>
                </mxCell>
                <mxCell id="70" value="" style="rounded=0;whiteSpace=wrap;html=1;labelBackgroundColor=#FFFFFF;strokeWidth=8;fontSize=15;labelBorderColor=default;fillColor=#FFFFFF;fontColor=#ffffff;strokeColor=#fff;" vertex="1" parent="1">
                    <mxGeometry x="271" y="-319" width="173" height="50.5" as="geometry"/>
                </mxCell>
            </root>
        </mxGraphModel>
    </diagram>
</mxfile>